HIERARCHY
ROOT Hips
{
  OFFSET 0 0 0
  CHANNELS 6 Xposition Yposition Zposition Zrotation Xrotation Yrotation
  JOINT Spine
  {
    OFFSET 0 10 0
    CHANNELS 3 Zrotation Xrotation Yrotation
    JOINT Neck
    {
      OFFSET 0 30.0003 -1.75966e-005
      CHANNELS 3 Zrotation Xrotation Yrotation
      JOINT Head
      {
        OFFSET 0 8.00013 0
        CHANNELS 3 Zrotation Xrotation Yrotation
        End Site
        {
          OFFSET 0 10 0
        }
      }
    }
    JOINT LeftArm
    {
      OFFSET 15 30.0001 0
      CHANNELS 3 Zrotation Xrotation Yrotation
      JOINT LeftForeArm
      {
        OFFSET 25 -4.27227e-005 1.87809e-005
        CHANNELS 3 Zrotation Xrotation Yrotation
        JOINT LeftHand
        {
          OFFSET 25 -1.10557e-005 0
          CHANNELS 3 Zrotation Xrotation Yrotation
          End Site
          {
            OFFSET 10 0 0
          }
        }
      }
    }
    JOINT RightArm
    {
      OFFSET -15 30 0
      CHANNELS 3 Zrotation Xrotation Yrotation
      JOINT RightForeArm
      {
        OFFSET -25 -4.48018e-005 7.42225e-005
        CHANNELS 3 Zrotation Xrotation Yrotation
        JOINT RightHand
        {
          OFFSET -25 -1.91756e-005 0
          CHANNELS 3 Zrotation Xrotation Yrotation
          End Site
          {
            OFFSET -10 0 0
          }
        }
      }
    }
  }
  JOINT LeftUpLeg
  {
    OFFSET 10 -10 0
    CHANNELS 3 Zrotation Xrotation Yrotation
    JOINT LeftLeg
    {
      OFFSET 0.000212294 -35.0001 0.0201078
      CHANNELS 3 Zrotation Xrotation Yrotation
      JOINT LeftToe
      {
        OFFSET 0 -40.0001 0
        CHANNELS 3 Zrotation Xrotation Yrotation
        JOINT LeftToeEnd
        {
          OFFSET 0 0 0
          CHANNELS 3 Zrotation Xrotation Yrotation
          End Site
          {
            OFFSET 0 0 15
          }
        }
      }
    }
  }
  JOINT RightUpLeg
  {
    OFFSET -10 -10 0
    CHANNELS 3 Zrotation Xrotation Yrotation
    JOINT RightLeg
    {
      OFFSET 5.01712e-005 -35 -0.000395552
      CHANNELS 3 Zrotation Xrotation Yrotation
      JOINT RightToe
      {
        OFFSET 0 -40.0001 0
        CHANNELS 3 Zrotation Xrotation Yrotation
        JOINT RightToeEnd
        {
          OFFSET 0 0 0
          CHANNELS 3 Zrotation Xrotation Yrotation
          End Site
          {
            OFFSET 0 0 15
          }
        }
      }
    }
  }
}
MOTION
Frames:	23
Frame Time:	0.0333333
4.98256 86.8923 -77.5384 -0.865867 7.88456 -4.52908 1.88856 4.40195 1.6399 -4.90886 -17.5709 -1.84932 7.8018 32.4218 -4.89161 -87.4743 14.1997 -0.654441 12.3487 -3.24107 -24.9412 -0.436743 5.21092 -2.47619 91.1062 13.2938 1.67361 -15.4269 -4.64476 26.31 0.472179 3.41172 -0.548389 0.116796 -17.7233 -0.0745643 -0.0158066 31.3656 -0.545297 1.7073 -21.2879 4.97147 -3.88251e-019 4.96962e-017 -9.93923e-017 5.36074 -15.3046 5.24661 -0.0324585 27.4311 0.427525 -3.43791 -19.563 -6.51621 9.47879e-023 3.03321e-021 -0 
4.97841 86.909 -77.6535 -0.700179 8.46622 -3.77404 1.60904 4.06749 1.15502 -5.08218 -17.8464 -2.17485 8.39305 32.9309 -5.2536 -87.2463 14.3058 -0.790195 12.2152 -3.19551 -24.6983 -0.587142 4.71751 -2.33757 91.3568 12.7577 1.76652 -15.4904 -4.65983 26.416 0.546271 3.91345 -0.679305 -0.0230295 -18.4588 -0.253056 -0.0384358 31.1034 -0.543786 1.56434 -20.9477 4.19936 -1.29314e-034 -3.72721e-017 -1.98785e-016 5.18733 -16.0615 5.05491 0.000440499 27.6142 0.376163 -3.52535 -19.5551 -7.06157 1.55301e-018 0 -7.95139e-016 
4.97322 86.9042 -77.6441 -0.673418 8.45475 -3.97576 1.53096 4.20761 1.37727 -4.92378 -17.7966 -2.05446 8.1707 33.0573 -5.22192 -87.0552 14.4345 -1.00345 12.2739 -3.19996 -24.7851 -0.437252 5.69705 -2.45384 91.3131 12.8292 1.87123 -15.4476 -4.63078 26.3168 0.542553 3.72362 -0.661456 -0.0507285 -18.4798 -0.224853 -0.0352205 31.1967 -0.544321 1.59542 -20.9653 4.37465 -1.94126e-019 4.96962e-017 9.93923e-017 5.18431 -16.0467 5.17324 -0.000205149 27.5655 0.378657 -3.49933 -19.5551 -6.93323 2.96212e-024 0 -0 
4.98425 86.8857 -77.6334 -0.927801 8.45487 -4.15839 1.84188 4.32199 1.41476 -5.10956 -17.5528 -2.08354 8.42392 32.9687 -5.33087 -87.1335 14.2868 -0.965104 12.1582 -3.16469 -24.5745 -0.635419 4.71484 -2.29377 91.2373 12.9789 1.89344 -15.4549 -4.64516 26.3421 0.545703 3.87114 -0.662477 0.21867 -18.6293 -0.275037 -0.0300768 31.595 -0.546635 1.64937 -21.1739 4.63143 -5.04727e-018 0 -0 5.45289 -15.964 5.11645 0.000550363 27.3986 0.37997 -3.47947 -19.4534 -6.64847 -2.80269e-018 0 -0 
5.01371 86.8661 -77.6498 -0.975499 8.45969 -4.16354 1.94624 4.34979 1.2592 -5.31905 -17.0641 -2.11363 8.81691 32.7917 -5.33634 -87.0054 14.0616 -1.14725 12.5096 -3.27775 -25.2031 -0.0744399 7.66342 -2.68019 91.1595 13.2515 1.88203 -15.4428 -4.62478 26.3074 0.561929 4.0797 -0.68168 0.294936 -18.6439 -0.200197 -0.0292701 31.6582 -0.547007 1.63617 -21.2604 4.52907 -1.06769e-017 2.48481e-017 -1.98785e-016 5.51651 -15.9997 5.20491 -0.00177277 27.5027 0.384539 -3.4882 -19.4893 -6.67318 8.62091e-035 3.10601e-018 -1.59028e-015 
5.00993 86.8769 -77.5992 -0.79966 8.30267 -4.73458 1.74166 4.5765 1.68631 -5.22676 -17.1721 -1.95409 8.75578 33.02 -5.32248 -86.9916 13.9186 -1.12038 12.5565 -3.34445 -25.3642 -0.150182 7.97773 -2.59372 91.1077 13.4308 1.97907 -15.421 -4.60325 26.2536 0.581575 4.18793 -0.748811 0.0871382 -18.3209 -0.201012 -0.0302315 31.5984 -0.546655 1.70333 -21.2552 5.10171 -3.88251e-019 2.48481e-017 1.98785e-016 5.37269 -15.9292 5.43877 -0.0123797 27.6185 0.407555 -3.3813 -19.5385 -6.37594 4.85314e-018 3.88251e-019 7.95139e-016 
5.02684 86.864 -77.5872 -0.885245 8.28403 -4.75902 1.86592 4.71203 1.82727 -5.185 -17.3158 -1.89804 8.6414 33.4986 -5.33682 -86.9481 14.1608 -1.17366 12.6746 -3.35083 -25.5336 -0.0614235 7.45633 -2.74773 91.0128 13.4626 2.08599 -15.4573 -4.64182 26.3442 0.534265 4.06432 -0.693523 0.18897 -18.4027 -0.0942545 -0.0281339 31.8262 -0.548 1.69829 -21.3322 5.05763 -7.76503e-019 0 -0 5.4625 -15.884 5.43732 -0.0128947 27.5811 0.412283 -3.41849 -19.5156 -6.3578 3.55455e-023 9.47879e-023 7.95139e-016 
5.045 86.8528 -77.6158 -0.890434 8.22209 -4.84035 1.93276 4.98603 1.8467 -5.17588 -17.2562 -1.79006 8.49001 33.6292 -5.1281 -86.913 14.1814 -1.25569 12.8388 -3.59899 -26.0954 -0.408347 8.19014 -2.37693 90.8828 13.9286 2.13424 -15.6303 -4.75683 26.7014 0.574531 4.06333 -0.713776 0.156065 -18.4418 -0.268254 -0.0263848 32.0182 -0.549145 1.69258 -21.3557 5.11179 7.76503e-019 4.96962e-017 -0 5.45836 -15.8918 5.45677 -0.0186567 27.6802 0.427619 -3.39773 -19.5426 -6.31244 -3.07113e-019 -7.88635e-020 -0 
5.05969 86.8133 -77.7098 -0.930669 8.36897 -4.81331 2.00883 5.12103 1.8856 -5.2205 -17.0737 -1.81912 8.6142 33.7896 -5.2569 -86.7598 14.6611 -1.57955 12.7905 -3.59251 -25.9999 -0.28984 7.47374 -2.3948 90.7883 14.4625 2.05754 -15.9045 -4.97993 27.3194 0.533079 3.48784 -0.644262 0.231314 -18.8489 -0.244474 -0.0227244 32.3544 -0.551177 1.67775 -21.4167 5.07285 4.65902e-018 0 1.98785e-016 5.54523 -16.2884 5.53752 -0.0119812 27.9583 0.418201 -3.39704 -19.5625 -6.32685 9.47879e-023 0 7.95139e-016 
5.08995 86.7303 -77.7845 -0.93322 8.45225 -4.60638 2.05059 5.32393 1.73248 -5.08503 -16.6827 -1.82467 8.38356 33.5199 -5.23725 -86.7272 15.6284 -1.3066 13.2695 -3.8774 -27.0371 -0.189111 6.88017 -2.54178 90.6945 15.2741 1.97133 -16.2873 -5.31194 28.1833 0.448867 2.64714 -0.451429 0.309088 -19.3093 0.029444 -0.0205481 32.7789 -0.548242 1.65288 -21.5411 4.68343 -7.76503e-019 0 3.97569e-016 5.52087 -16.6665 5.42905 -0.00679526 28.4945 0.41929 -3.39307 -19.8168 -6.48141 -1.89576e-022 -7.58303e-022 -7.95139e-016 
5.14336 86.6173 -77.9686 -1.19253 8.80465 -4.5605 2.44054 5.76409 1.87647 -5.19495 -16.9295 -1.81017 8.6059 33.5247 -5.35482 -86.5465 17.1715 -1.58653 13.8241 -4.33089 -28.3569 -0.221942 5.48904 -2.4813 90.3314 15.92 2.40373 -16.6087 -5.55272 28.8546 0.483084 2.55767 -0.452513 0.543497 -20.3726 -0.210494 -0.0181144 33.7528 -0.536262 1.7148 -21.796 4.86659 1.78596e-017 0 -0 5.79887 -17.4644 5.41299 0.00513018 29.0155 0.391929 -3.34375 -19.8782 -6.37274 9.95273e-022 0 -7.95139e-016 
5.26418 86.5642 -78.1819 -1.0699 8.94502 -4.39014 2.43471 6.39785 1.48861 -5.04601 -16.7822 -1.75699 8.39745 33.2605 -4.91186 -86.6054 18.5721 -1.41454 14.7744 -5.04359 -30.4888 -0.142662 3.78267 -2.57671 90.1047 17.7156 1.9841 -17.5354 -6.35726 30.9822 0.483204 1.4418 -0.406181 0.338976 -21.1548 -0.0468235 0.0170792 35.1671 -0.535157 1.77035 -22.2179 4.54196 -9.31803e-018 -1.98785e-016 -0 5.44957 -18.1327 4.88609 0.011756 29.6423 0.387242 -3.17301 -20.0421 -5.96621 -0 0 1.59028e-015 
5.27396 86.3797 -78.466 -1.76524 9.18671 -4.29797 3.11309 7.38676 1.78498 -4.81615 -16.7924 -1.62243 8.33908 33.0287 -4.92478 -86.5089 20.5455 -1.36986 15.8867 -5.98373 -33.0607 -0.220117 0.834644 -2.59689 89.8004 19.084 2.16806 -18.528 -7.25868 33.2285 0.513722 0.415811 -0.323878 1.22605 -22.5837 0.159895 0.00843793 36.5277 -0.510975 1.76976 -22.3085 4.35386 -1.86361e-017 1.98785e-016 -0 6.33848 -18.8373 5.14109 0.0354529 30.1436 0.341101 -3.27523 -20.0031 -6.16419 1.30333e-022 -1.89576e-022 7.95139e-016 
5.30689 86.0702 -78.7989 -1.78821 9.6451 -4.03391 2.95475 8.45055 1.69852 -5.22623 -17.4095 -2.49434 9.97456 33.596 -6.72123 -86.1105 21.5868 -1.73548 16.8123 -6.96034 -35.4034 -0.25785 -0.0489076 -2.41877 89.537 20.5471 2.7124 -19.5925 -8.31508 35.713 0.547596 -0.619166 -0.296861 1.31484 -24.4454 0.282531 -0.020902 37.9256 -0.472604 1.75657 -22.5202 4.13696 -1.86361e-017 -9.93923e-017 -0 6.54002 -20.5752 5.42176 0.0707937 32.0351 0.25899 -3.31079 -20.6046 -6.56489 -7.73469e-020 4.2465e-020 -7.95139e-016 
5.41476 85.8185 -79.132 -1.86086 10.3179 -3.70263 3.06264 9.43708 1.44579 -4.99213 -17.5475 -2.45476 9.60125 33.3352 -6.34678 -85.9237 22.4101 -1.93082 17.988 -8.27115 -38.4193 -0.434373 0.883143 -2.15322 89.331 21.9606 2.81815 -20.9279 -9.82553 39.0285 0.564784 -1.54482 -0.214509 1.45796 -26.3348 0.458122 -0.0634059 39.2283 -0.423904 1.75754 -22.6708 3.70394 3.49426e-017 0 -9.93923e-017 6.59483 -22.4553 5.21872 0.120267 33.5174 0.160612 -3.2398 -20.9117 -6.5466 1.70239e-019 1.51661e-020 -0 
5.50309 85.4973 -79.4848 -1.7668 11.3176 -3.52011 2.92734 10.4217 1.35512 -4.76771 -17.5898 -2.49594 9.33335 32.2884 -6.26128 -85.3162 23.5037 -2.63543 18.9104 -9.32887 -40.7732 -0.461683 0.390944 -2.07233 89.0588 23.033 3.567 -21.9894 -11.1317 41.7323 0.618828 -2.31531 -0.217136 1.50049 -28.6868 0.727441 -0.135446 40.7194 -0.351427 1.79712 -23.0179 3.46809 -6.98852e-018 2.48481e-017 -0 6.59124 -24.8631 5.26127 0.200036 35.3443 0.0195147 -3.17502 -21.3535 -6.63865 1.48106e-022 -9.47879e-023 1.59028e-015 
5.60796 85.0096 -79.874 -1.89783 12.7693 -3.47306 3.17373 11.3625 1.42622 -4.77608 -18.336 -2.52621 8.90467 31.8387 -6.24359 -84.6704 24.8828 -3.40432 19.9433 -10.3383 -43.1064 -0.233449 -0.347246 -2.3434 88.2059 24.1634 4.78853 -22.7712 -12.137 43.7534 0.703889 -2.86954 -0.302899 2.03942 -31.5815 1.4033 -0.253528 42.5699 -0.235187 1.83598 -23.7349 3.03001 2.91188e-018 -4.96962e-017 -0 7.01858 -27.993 5.70494 0.329939 37.5731 -0.184207 -3.13611 -21.8804 -6.91986 4.7394e-023 -7.58303e-022 7.95139e-016 
5.66936 84.4486 -80.3442 -1.62079 14.4154 -3.20491 2.85399 12.6204 1.51766 -4.89482 -19.4157 -2.45251 8.94356 31.2302 -5.89602 -83.429 25.976 -5.10617 20.5802 -11.1947 -44.8536 -0.287401 -0.357692 -2.25188 87.461 25.2072 6.21371 -23.6222 -13.3696 46.1061 0.797003 -2.65933 -0.266335 2.06783 -35.0559 1.77159 -0.409372 44.6547 -0.0914903 1.83036 -24.2025 2.52071 -1.32005e-017 4.96962e-017 -9.93923e-017 6.99899 -31.6615 5.84507 0.512181 40.277 -0.445016 -3.16771 -22.5937 -7.49102 2.84364e-022 7.58303e-022 -7.95139e-016 
5.8247 83.7624 -80.8551 -1.14634 16.3086 -2.88124 2.60993 13.8412 1.10496 -5.39012 -20.1022 -2.68755 9.19238 29.7834 -5.70571 -82.3162 26.6937 -6.76496 21.0238 -11.9381 -46.2893 -0.354486 -0.822662 -2.087 86.1661 26.9387 7.67741 -24.4664 -14.9545 48.9683 0.805887 -3.3824 -0.0925332 1.46152 -39.036 1.55272 -0.614969 47.0311 0.0957481 1.97298 -24.7776 2.61313 1.99949e-017 9.93923e-017 -2.48481e-017 6.5214 -35.9696 5.6342 0.766014 43.5501 -0.764464 -3.09999 -23.7922 -7.71976 6.21202e-018 0 -0 
5.94475 82.9904 -81.3449 -1.00524 18.748 -2.22867 2.71884 14.8268 0.846762 -5.52623 -21.7549 -2.97573 8.96694 28.7569 -5.81685 -80.679 27.8179 -8.84106 21.4184 -12.4902 -47.3996 -0.311481 -1.39976 -2.09099 84.8044 27.5138 9.4713 -24.9757 -15.9365 50.7593 0.841663 -3.87363 -0.150193 1.25206 -43.6732 1.40064 -0.906663 49.4025 0.352609 2.01967 -25.344 2.29682 -1.16475e-018 3.97569e-016 2.48481e-017 6.57145 -40.7305 5.83276 1.09033 46.6356 -1.21439 -3.48831 -24.6791 -8.68245 -1.2424e-017 0 -7.95139e-016 
6.03171 82.0791 -81.696 -1.09022 21.1467 -2.01046 2.98207 15.9621 0.792477 -5.77921 -23.0313 -3.17795 8.82175 27.3839 -5.68133 -79.3134 28.2838 -10.8002 21.7374 -12.965 -48.3112 -0.520437 -1.67021 -1.99092 83.2647 28.2959 11.3757 -25.3718 -16.7766 52.2937 0.883941 -4.66796 -0.213519 1.58995 -48.3357 1.64536 -1.26135 52.3689 0.67265 2.17986 -26.3515 2.49333 -3.10601e-018 -3.97569e-016 9.93923e-017 7.26433 -45.4434 6.54054 1.45539 49.9412 -1.6865 -3.78027 -25.5748 -9.38758 0 1.49089e-016 -0 
6.05779 80.915 -82.0599 -0.907111 23.6221 -1.85029 2.79904 17.3252 0.850736 -5.75776 -24.9212 -3.33997 8.69315 25.8806 -5.50055 -77.6214 28.5356 -13.1728 21.8923 -13.1346 -48.6528 -0.293828 -1.37646 -2.08249 81.657 28.7668 13.6583 -25.6624 -17.4005 53.4217 0.935795 -4.73732 -0.248274 1.80685 -53.4345 2.01828 -1.70571 55.7334 1.09579 2.28427 -27.294 2.33197 9.31803e-018 5.96354e-016 9.93923e-017 8.27762 -50.5703 8.05083 1.89453 53.6286 -2.2475 -4.24893 -26.6458 -10.4552 4.34841e-017 -1.98785e-016 3.18055e-015 
6.20044 79.8231 -81.9373 -0.8467 26.3334 -1.08794 3.23264 17.1268 0.583597 -6.41749 -25.228 -3.82204 9.19687 24.3343 -6.07479 -76.4789 29.3097 -14.9416 21.8218 -13.2464 -48.7657 -0.578508 -2.31318 -1.8323 80.2046 28.8526 15.1129 -25.7377 -17.5692 53.7445 0.94326 -4.74936 -0.2757 1.11072 -57.9413 1.4165 -2.15456 58.6052 1.52666 2.59343 -29.0244 2.61164 1.2424e-017 0 -3.97569e-016 8.23501 -55.3255 7.86506 2.38483 57.3027 -2.87184 -4.73568 -27.8634 -11.423 -2.01891e-017 -1.2424e-017 -0 
